<mxfile host="app.diagrams.net" modified="2023-07-29T13:20:54.653Z" agent="Mozilla/5.0 (Macintosh; Intel Mac OS X 10_15_7) AppleWebKit/537.36 (KHTML, like Gecko) Chrome/111.0.0.0 Safari/537.36" version="21.6.5" etag="oW4Q4kuxlfdh4oMHv2SL" type="github">
  <diagram name="第 1 页" id="xfArffzFM_yOijafqFRV">
    <mxGraphModel>
      <root>
        <mxCell id="0" />
        <mxCell id="1" parent="0" />
      </root>
    </mxGraphModel>
  </diagram>
</mxfile>
